<?xml version="1.0" encoding="utf-8"?>
<!-- Generator: Adobe Illustrator 16.0.0, SVG Export Plug-In . SVG Version: 6.00 Build 0)  -->
<!DOCTYPE svg PUBLIC "-//W3C//DTD SVG 1.1//EN" "http://www.w3.org/Graphics/SVG/1.1/DTD/svg11.dtd">
<svg version="1.1" id="レイヤー_1" xmlns="http://www.w3.org/2000/svg" xmlns:xlink="http://www.w3.org/1999/xlink" x="0px"
	 y="0px" width="1280px" height="420px" viewBox="0 0 1280 420" enable-background="new 0 0 1280 420" xml:space="preserve">
<g>
	<path fill="#F0F0EE" d="M769.273,182.388c0.809-2.589,1.606-5.158,2.401-7.707c0.793-2.548,1.465-5.071,2.015-7.57
		c0.549-2.497,0.932-4.869,1.151-7.113c0.264-2.963,0.396-5.313,0.396-7.05c0-2.286-0.203-3.874-0.613-4.763
		c-0.408-0.889-1-1.334-1.773-1.334c-1.377,0-2.625,0.857-3.744,2.571c-1.118,1.714-2.018,3.924-2.696,6.629
		c-0.683,2.706-1.42,5.646-2.22,8.823c-0.799,3.178-1.383,6.289-1.752,9.334c-0.366,3.045-0.664,5.79-0.885,8.234
		c-0.223,2.445-0.379,4.182-0.471,5.211c-0.187,2.102-0.336,4.128-0.451,6.079c-0.115,1.952-0.354,3.731-0.402,5.34
		c-0.047,1.609-0.229,3.013-0.229,4.213c0,1.201,0,2.124,0,2.766v0.644c3-5.638,4.682-11.253,6.664-16.848
		C767.49,187.464,768.467,184.976,769.273,182.388z"/>
	<path fill="#F0F0EE" d="M745.342,219.271c-0.043-2.666-0.084-4.853-0.127-6.56c-0.045-1.707-0.076-3.264-0.098-4.672
		c-0.022-1.408-0.053-2.56-0.097-3.457c-0.043-0.896-0.084-1.322-0.127-1.279c-2.793,1.366-5.278,3.169-7.459,5.408
		c-2.18,2.24-3.998,5.194-5.459,8.864c-1.459,3.67-2.569,6.828-3.332,9.473c-0.762,2.645-1.143,5.034-1.143,7.168
		c0,0.663,0.096,1.325,0.285,1.987c0.19,0.663,0.541,1.259,1.049,1.789c0.508,0.528,1.227,0.96,2.158,1.291
		c0.93,0.332,2.137,0.497,3.617,0.497c0.762,0,1.514-0.168,2.256-0.508c0.739-0.336,1.448-0.777,2.129-1.321
		c0.678-0.543,1.322-1.163,1.938-1.856c0.613-0.695,1.175-1.418,1.685-2.169c1.186-1.726,2.266-3.677,3.24-5.854
		c-0.13-0.597-0.236-1.546-0.322-2.849C745.449,223.923,745.385,221.939,745.342,219.271z"/>
	<path fill="#F0F0EE" d="M472.471,280.536c-2.883,4.653-5.172,9.394-6.869,14.217c-1.398,4.062-0.701,6.093,2.092,6.093
		c1.016,0,1.925-0.127,2.729-0.381c0.803-0.254,1.544-0.709,2.223-1.365c0.676-0.656,1.27-1.375,1.776-2.158
		c0.508-0.783,1.047-1.883,1.619-3.301c0.571-1.418,1.079-2.814,1.522-4.188c0.444-1.375,1.006-3.206,1.683-5.491
		c0.381-1.229,0.664-2.595,0.848-4.1c0.186-1.508,0.404-3.318,0.662-5.43c0.256-2.115,0.42-3.465,0.492-4.051
		C478.279,272.497,475.354,275.881,472.471,280.536z"/>
	<path fill="#F0F0EE" d="M0,0v420h1280V0H0z M519.688,242.539c-1.27,1.429-2.623,2.816-4.062,4.162
		c-2.116,1.934-3.64,3.236-4.57,3.908c-0.296,0.211-1.841,1.426-4.634,3.646c-0.847,0.72-3.648,2.665-8.405,5.838
		c-1.157,0.763-1.95,2.147-2.379,4.157c-0.428,2.009-0.921,5.743-1.479,11.2c-0.243,1.557-0.396,2.756-0.455,3.598
		c-0.258,2.021-0.502,3.947-0.733,5.777c-0.231,1.831-0.643,3.921-1.232,6.271c-0.592,2.35-1.289,4.508-2.092,6.479
		c-0.804,1.968-1.858,3.926-3.168,5.874c-1.309,1.946-2.756,3.607-4.339,4.984c-1.584,1.375-3.495,2.485-5.733,3.333
		c-2.238,0.847-4.688,1.271-7.349,1.271c-2.153,0-4.149-0.243-5.986-0.729c-1.837-0.485-3.517-1.236-5.036-2.25
		c-1.521-1.016-2.768-2.399-3.737-4.153c-0.972-1.754-1.542-3.815-1.711-6.184c-0.339-4.48,0.889-9.215,3.682-14.202
		c1.565-2.791,2.666-4.726,3.302-5.803c0.635-1.078,1.628-2.631,2.982-4.66c1.354-1.988,2.771-3.785,4.253-5.391
		c2.961-3.34,5.405-6.023,7.332-8.053c1.925-2.029,4.222-4.207,6.888-6.53l1.396-7.673c-2.285,2.011-4.666,3.633-7.141,4.869
		c-2.476,1.236-4.878,1.853-7.205,1.853c-2.031,0-4.011-0.413-5.936-1.237c-1.926-0.826-3.629-2.01-5.109-3.556
		c-1.482-1.544-2.666-3.428-3.556-5.649c-0.889-2.221-1.333-4.729-1.333-7.521c0-3.682,0.253-7.057,0.762-10.124
		c0.507-3.067,1.133-6.854,1.876-11.36c0.744-4.508,1.623-8.062,2.638-10.666s2.179-5.237,3.49-7.904
		c0.972-1.904,2.369-3.354,4.188-4.348c1.819-0.994,3.595-1.492,5.33-1.492c1.48,0,2.75,0.371,3.808,1.112
		c1.057,0.741,1.587,1.895,1.587,3.461c0,0.466-0.054,0.974-0.156,1.524c-0.104,0.55-0.281,1.143-0.53,1.777
		c-0.748,1.948-1.378,4.264-1.892,6.947c-0.515,2.683-1.199,6.261-2.057,10.731c-0.856,4.472-1.536,8.018-2.038,10.638
		c-0.504,2.621-0.755,4.957-0.755,7.011c0,1.068,0.073,2.106,0.223,3.11c0.147,1.006,0.413,1.903,0.793,2.694
		c0.38,0.793,0.889,1.433,1.522,1.925c0.635,0.491,1.438,0.737,2.412,0.737c1.565,0,2.983-0.681,4.253-2.045
		c1.271-1.363,2.37-3.004,3.301-4.922c0.931-1.919,1.683-3.9,2.253-5.945c0.571-2.045,0.941-3.75,1.111-5.115l5.086-23.739
		c0.297-1.396,0.891-2.666,1.78-3.809c0.847-1.101,1.844-2.042,2.988-2.826c1.145-0.783,2.331-1.365,3.561-1.746
		s2.395-0.571,3.497-0.571c1.313,0,2.415,0.287,3.306,0.858c0.891,0.572,1.335,1.473,1.335,2.701c0,0.382-0.062,0.827-0.189,1.335
		c-0.198,1.127-0.463,2.639-0.794,4.538c-0.332,1.898-0.71,4.058-1.133,6.478s-1.015,5.814-1.772,10.182
		c-0.76,4.366-1.376,7.879-1.85,10.537c-1.072,6.281-2.165,13.031-3.279,20.246c1.285-0.718,2.672-1.605,4.159-2.662
		c1.487-1.058,3.14-2.475,4.96-4.25c1.818-1.774,3.851-4.006,6.094-6.69s4.761-6.036,7.554-10.054l3.048,14.127
		C521.846,239.87,520.873,241.193,519.688,242.539z M553.989,216.708c-0.19,0.868-0.571,1.649-1.144,2.349
		c-0.571,0.699-1.387,1.53-2.443,1.996c-1.059,0.467-2.477,0.948-4.253,0.948h-26.344c-1.354,0-2.434-0.493-3.236-0.979
		c-0.805-0.486-1.429-1.205-1.873-1.902c-0.445-0.698-0.73-1.512-0.857-2.316c-0.127-0.803-0.189-1.555-0.189-2.188
		c0-0.55,0.062-1.147,0.189-1.761s0.402-1.192,0.825-1.723c0.422-0.529,1.047-1.122,1.873-1.461
		c0.825-0.338,1.914-0.668,3.269-0.668h28.438c0.549,0,1.184,0.22,1.904,0.347c0.719,0.127,1.375,0.449,1.968,0.808
		c0.592,0.36,1.1,0.886,1.522,1.499c0.422,0.613,0.636,1.447,0.636,2.463C554.275,214.964,554.18,215.841,553.989,216.708z
		 M780.008,247.396c-1.227,0.81-2.518,1.608-3.871,2.395c-1.354,0.787-2.688,1.482-4,2.09c-1.312,0.607-2.586,1.102-3.823,1.483
		c-1.238,0.382-2.371,0.571-3.4,0.571c-0.607,0-1.506-0.135-2.697-0.404c-1.19-0.271-2.49-0.82-3.899-1.651
		c-1.408-0.831-2.814-2.032-4.224-3.606c-1.408-1.572-2.633-3.662-3.672-6.27c-1.57,1.618-3.236,3.156-4.998,4.616
		c-1.76,1.46-3.586,2.729-5.475,3.807c-1.89,1.079-3.799,1.944-5.73,2.595c-1.932,0.652-3.873,0.978-5.826,0.978
		c-2.75,0-5.131-0.571-7.141-1.716s-3.682-2.667-5.016-4.567c-0.16-0.228-0.3-0.472-0.449-0.707
		c-1.269,0.958-2.567,1.877-3.93,2.708c-2.054,1.254-4.308,2.279-6.761,3.081c-2.455,0.802-5.227,1.201-8.315,1.201
		c-1.523,0-2.803-0.487-3.84-1.461s-1.873-2.332-2.509-4.073c-0.635-1.742-1.09-3.794-1.362-6.156
		c-0.277-2.365-0.414-4.936-0.414-7.713c0-2.689,0.096-5.498,0.287-8.51c0.188-3.011,0.453-6.086,0.793-9.086h-0.953l-12.885,32.564
		c-1.103,1.768-2.328,2.934-3.683,3.543s-2.92,0.904-4.697,0.904c-1.354,0-2.435-0.365-3.237-1.084
		c-0.804-0.718-1.428-1.645-1.872-2.775c-0.444-1.129-0.741-2.373-0.889-3.729c-0.149-1.354-0.223-2.671-0.223-3.943
		c0-0.553,0.041-1.34,0.127-2.358c0.084-1.021,0.211-2.188,0.381-3.507c0.168-1.317,0.358-2.709,0.57-4.176
		c0.212-1.465,0.423-2.975,0.635-4.42c0.467-3.399,1.037-7.018,1.716-11.018h-0.953c-0.509,1-1.091,1.65-1.745,2.928
		c-0.657,1.276-1.577,3.176-2.761,5.646c-1.187,2.47-2.698,5.688-4.539,9.626c-1.842,3.938-4.222,8.771-7.142,14.479
		c-0.848,1.684-1.832,2.827-2.952,3.422c-1.122,0.597-2.358,0.896-3.713,0.896c-1.735,0-3.132-0.357-4.188-1.078
		c-1.059-0.718-1.873-1.684-2.444-2.896c-0.571-1.211-0.952-2.586-1.143-4.127c-0.091-0.728-0.155-1.469-0.203-2.219
		c-1.081,0.769-2.252,1.571-3.542,2.422c-1.418,0.935-2.952,1.877-4.603,2.832c-1.649,0.955-3.312,1.799-4.982,2.533
		c-1.672,0.736-3.343,1.342-5.016,1.819c-1.672,0.478-3.269,0.715-4.792,0.715c-2.382,0-4.449-0.594-6.203-1.784
		c-1.755-1.189-3.194-2.701-4.32-4.537c-1.126-1.834-1.971-3.84-2.534-6.019s-0.844-4.233-0.844-6.17
		c0-1.368,0.187-2.896,0.562-4.584c0.374-1.688,0.836-3.388,1.387-5.099c0.551-1.709,1.166-3.375,1.85-5
		c0.682-1.625,1.321-3.078,1.916-4.36c0.594-1.283,1.112-2.33,1.552-3.142c0.44-0.812,0.727-1.283,0.859-1.412l-1.333-0.192
		c-0.721,0.46-1.937,1.633-3.65,3.516c-1.714,1.884-3.65,4.259-5.808,7.126c-2.158,2.867-4.392,6.09-6.697,9.668
		c-2.307,3.579-4.391,7.272-6.252,11.081c-0.931,1.886-1.693,3.527-2.285,4.931c-0.593,1.401-1.174,2.529-1.746,3.385
		c-0.571,0.855-1.195,1.501-1.873,1.938c-0.677,0.438-1.545,0.655-2.603,0.655c-1.396,0-2.498-0.377-3.301-1.133
		c-0.805-0.754-1.418-1.759-1.842-3.011c-0.423-1.25-0.697-2.672-0.824-4.262c-0.127-1.591-0.19-3.22-0.19-4.891
		c0-2.905,0.032-6.709,0.095-11.415c0.063-4.705,0.265-9.919,0.604-15.644c0.338-5.725,0.956-11.654,1.854-17.792
		c0.897-6.136,1.79-12.242,2.678-18.316c0.889-6.074,2.212-11.855,3.971-17.344c1.758-5.489,3.898-10.32,6.42-14.495
		c2.521-4.175,5.476-7.491,8.866-9.95c3.39-2.458,7.288-3.688,11.694-3.688c2.285,0,4.158,0.341,5.618,1.021
		c1.46,0.682,2.624,1.64,3.491,2.874c0.867,1.235,1.47,2.713,1.809,4.438c0.338,1.724,0.509,3.65,0.509,5.778
		c0,3.164-0.444,6.669-1.333,10.516c-0.89,3.847-2.063,7.844-3.523,11.99s-3.121,8.346-4.983,12.599
		c-1.862,4.253-3.767,8.378-5.713,12.375c-1.946,3.997-3.861,7.77-5.745,11.317c-1.883,3.548-3.545,6.667-4.982,9.361l1.27,0.896
		c1.735-2.347,3.683-4.868,5.841-7.562c2.157-2.695,5.046-5.804,8.665-9.325c3.618-3.521,6.579-6.053,8.887-7.596
		c2.306-1.543,4.475-2.315,6.506-2.315c0.508,0,1.079,0.097,1.714,0.292c0.635,0.195,1.238,0.549,1.81,1.067
		c0.57,0.518,1.047,1.24,1.428,2.167c0.381,0.927,0.57,2.124,0.57,3.589c0,2.933-0.402,5.791-1.205,8.571
		c-0.805,2.782-2.328,6.157-4.57,10.125c-2.244,3.967-3.756,7.396-4.539,10.284c-0.784,2.89-1.174,5.908-1.174,9.058
		c0,1.726,0.254,3.104,0.762,4.14c0.508,1.036,1.164,1.553,1.968,1.553c1.017,0,2.095-0.213,3.237-0.642
		c1.143-0.428,2.285-0.983,3.428-1.667c1.144-0.684,2.264-1.464,3.364-2.34c1.1-0.876,2.136-1.785,3.11-2.727
		c2.048-1.918,4.062-4.084,6.046-6.467c0.314-2.147,0.721-4.509,1.222-7.09c0.656-3.386,1.227-6.339,1.714-8.86
		c0.486-2.519,0.984-4.826,1.492-6.919c0.508-2.093,0.973-3.801,1.396-5.125c0.423-1.367,0.825-2.457,1.206-3.268
		c0.382-0.812,0.814-1.441,1.303-1.89c0.484-0.448,1.067-0.748,1.745-0.897c0.677-0.149,1.545-0.224,2.604-0.224
		c1.607,0,2.865,0.054,3.776,0.161c0.908,0.107,1.587,0.363,2.03,0.769c0.444,0.406,0.708,0.993,0.794,1.762
		c0.084,0.77,0.128,1.816,0.128,3.139c0,0.726-0.032,1.559-0.097,2.499c-0.062,0.94-0.158,1.944-0.285,3.011
		c-0.086,1.068-0.213,2.157-0.381,3.267c-0.297,2.137-0.467,3.247-0.508,3.332c-0.594,2.905-1.207,6.151-1.842,9.739l0.699,0.77
		c0.084-0.129,0.645-1.26,1.682-3.396c1.037-2.135,2.158-4.25,3.364-6.343c1.206-2.092,2.507-4.282,3.902-6.567
		c1.396-2.285,2.73-4.303,4-6.054c1.228-1.751,2.527-3.204,3.903-4.357c1.374-1.152,3.015-1.729,4.919-1.729
		c1.777,0,3.301,0.523,4.57,1.57c1.269,1.047,1.904,2.53,1.904,4.453c0,1.666-0.105,3.246-0.316,4.741
		c-0.254,1.922-0.508,3.375-0.762,4.357c-0.297,1.111-0.636,2.478-1.017,4.101c-0.297,1.41-0.825,3.438-1.588,6.087
		c-0.127,0.428-0.254,1.045-0.381,1.857c-0.043,0.257-0.062,0.427-0.062,0.513l0.696,0.769c0.084-0.127,0.679-1.248,1.777-3.362
		c1.1-2.114,2.295-4.218,3.588-6.311c1.289-2.092,2.666-4.292,4.125-6.598c1.461-2.307,2.824-4.335,4.094-6.087
		c1.228-1.708,2.455-3.15,3.683-4.324c1.227-1.174,2.729-1.763,4.508-1.763c1.988,0,3.67,0.523,5.047,1.57
		c1.373,1.046,2.062,2.53,2.062,4.453c0,2.948-0.148,5.745-0.445,8.393s-0.74,5.574-1.332,8.777
		c-0.594,3.205-1.037,6.121-1.334,8.746c-0.297,2.627-0.443,5.414-0.443,8.36c0,2.308,0.295,4.187,0.89,5.638
		c0.592,1.453,1.311,2.179,2.157,2.179c0.89,0,1.818-0.191,2.793-0.576c0.974-0.386,1.968-0.876,2.982-1.474
		c0.713-0.42,1.412-0.903,2.104-1.418c-0.047-0.674-0.072-1.352-0.072-2.035c0-2.75,0.35-5.53,1.047-8.344
		c0.699-2.812,1.715-5.541,3.047-8.183c1.334-2.642,2.814-5.399,4.443-8.279s3.787-5.499,6.475-7.861
		c2.688-2.362,5.449-4.145,8.285-5.347c2.834-1.202,5.858-1.954,9.076-2.255c0.127-5.498,0.711-10.341,1.752-14.53
		c1.039-4.189,2.158-8.696,3.356-13.522c1.197-4.825,2.744-9.269,4.64-13.331c1.895-4.062,3.969-7.575,6.225-10.536
		s4.66-5.278,7.215-6.95c2.553-1.671,5.191-2.507,7.916-2.507c1.988,0,3.682,0.52,5.078,1.558s2.529,2.416,3.396,4.133
		c0.866,1.718,1.491,3.71,1.872,5.978c0.382,2.268,0.57,4.61,0.57,7.026c0,1.509-0.014,3.06-0.041,4.654
		c-0.121,6.076-1.059,11.73-2.812,16.964c-1.753,5.234-3.486,10.407-5.199,15.521c-1.715,5.114-3.779,10.174-6.201,15.18
		c-3.695,7.66-6.051,12.859-7.062,15.598c-0.22,0.599-0.439,1.327-0.658,2.182c-0.222,0.856-0.431,1.786-0.629,2.792
		c-0.197,1.006-0.363,2.033-0.494,3.082c-0.133,1.049-0.197,2.064-0.197,3.049c0,1.241,0.07,2.418,0.215,3.53
		c0.146,1.113,0.381,2.106,0.713,2.984c0.328,0.877,0.771,1.571,1.328,2.086c0.556,0.514,1.246,0.771,2.07,0.771
		c0.805,0,1.684-0.16,2.635-0.48c0.953-0.319,1.957-0.758,3.017-1.312c1.057-0.555,2.127-1.184,3.204-1.888
		c1.08-0.704,2.128-1.419,3.144-2.146c2.326-1.707,4.76-3.647,7.299-5.824l1.904,13.23
		C785.891,243.264,782.928,245.465,780.008,247.396z M819.797,244.1c-0.043,0.617-0.18,1.332-0.412,2.143
		c-0.231,0.811-0.594,1.67-1.078,2.576c-0.487,0.908-1.176,1.748-2.063,2.52s-2.011,1.408-3.363,1.91
		c-1.354,0.502-3.006,0.753-4.951,0.753c-1.565,0-2.983-0.183-4.254-0.549c-1.27-0.367-2.358-0.927-3.268-1.679
		c-0.912-0.754-1.619-1.719-2.127-2.896c-0.509-1.178-0.763-2.596-0.763-4.256c0-1.39,0.224-2.75,0.666-4.082
		c0.445-1.331,1.131-2.519,2.062-3.562c0.932-1.041,2.137-1.873,3.619-2.49c1.479-0.617,3.236-0.926,5.268-0.926
		c3.512,0,6.178,0.812,7.998,2.432c1.82,1.622,2.73,3.938,2.73,6.947C819.861,243.096,819.84,243.482,819.797,244.1z"/>
	<path fill="#F0F0EE" d="M591.166,182.237c1.167-2.729,2.132-5.046,2.896-6.951c2.5-6.474,4.312-11.932,5.437-16.375
		c1.124-4.443,1.686-7.722,1.686-9.838c0-3.215-0.45-4.824-1.354-4.824c-1.101,0-2.73,1.798-4.889,5.394
		c-2.159,3.596-4.699,8.82-7.619,15.672c-0.72,2.327-1.388,4.739-2,7.234c-0.614,2.495-1.102,4.988-1.46,7.477
		c-0.359,2.49-0.713,4.937-1.062,7.343c-0.348,2.406-0.675,4.675-0.982,6.809c-0.93,5.022-1.641,9.938-2.131,14.749
		c1.145-2.666,2.395-5.564,3.752-8.695c1.356-3.131,2.692-6.23,4.007-9.298C588.76,187.864,590,184.966,591.166,182.237z"/>
</g>
</svg>
